<!-- by TradingView --><svg width="56" height="56" viewBox="0 0 56 56" xmlns="http://www.w3.org/2000/svg"><path fill="#F0F3FA" d="M0 0h56v56H0z"/><circle cx="28" cy="28" r="16" fill="url(#ass0enz5q)"/><path d="M25 32c-8.9-1.26-12.05-6.66-12.48-9.2-1.12 2.68-1.85 9.8 4.2 16.83 2.84 2.81 10.62 7.21 19.04 2.35-6.55-1-9.88-7.08-10.76-9.98Z" fill="url(#bss0enz5q)"/><path d="M27.32 17.12C22.66 22.08 23.85 29.06 25 32c3.2 0 9.63.13 12.65-4.15l1.94-6.68-1.01-2.95-11.26-1.1Z" fill="url(#css0enz5q)"/><path d="M35.66 16.53c-6.31-4.79-13.78-3.24-16.72-1.86l3.46-2.14 5.99-.97 6.3 1.28 4.47 2.84 3.54 4.82 1.71 4.9-.15 5.91-2.3 4.94c1.8-4.32.91-9.03.24-10.85l-2.18 6.8v-7.19l-7 11.24 4.51-12.9-10.54 6.84 9.37-8.64-12.33.97 12.64-3.46-8.9-3.15 7.9.62Z" fill="#F0F3FA"/><path fill-rule="evenodd" d="M28 45a17 17 0 1 0 0-34 17 17 0 0 0 0 34Zm0-1a16 16 0 1 0 0-32 16 16 0 0 0 0 32Z" fill="#CBCACB"/><defs><linearGradient id="ass0enz5q" x1="15.36" y1="21.05" x2="40.66" y2="35.7" gradientUnits="userSpaceOnUse"><stop stop-color="#189FE1"/><stop offset="1" stop-color="#149BE8"/></linearGradient><linearGradient id="bss0enz5q" x1="13.89" y1="28.99" x2="23.76" y2="44.16" gradientUnits="userSpaceOnUse"><stop stop-color="#0481D5"/><stop offset="1" stop-color="#001960"/></linearGradient><linearGradient id="css0enz5q" x1="26.75" y1="32.25" x2="34.93" y2="20.85" gradientUnits="userSpaceOnUse"><stop stop-color="#B7E3F4"/><stop offset="1" stop-color="#65CCF2" stop-opacity="0"/></linearGradient></defs></svg>